{"accessors" : [{"bufferView" : 0, "byteOffset" : 0, "componentType" : 5123, "count" : 144, "type" : "SCALAR", "max" : [119], "min" : [0]}, {"bufferView" : 1, "byteOffset" : 0, "componentType" : 5126, "count" : 120, "type" : "VEC3", "max" : [1450.0966796875, 2615.104248046875, 479.7724914550781], "min" : [-801.4841918945312, 2599.70361328125, 288.8046875], "name" : "POSITION"}, {"bufferView" : 1, "byteOffset" : 12, "componentType" : 5126, "count" : 120, "type" : "VEC3", "max" : [0.5773528218269348, 0.5773528218269348, 0.5773528218269348], "min" : [-0.5773528218269348, -0.5773528218269348, -0.5773528218269348], "name" : "NORMAL"}, {"bufferView" : 1, "byteOffset" : 24, "componentType" : 5126, "count" : 120, "type" : "VEC2", "max" : [1, 1], "min" : [0, 0], "name" : "TEXCOORD_0"}, {"bufferView" : 0, "byteOffset" : 288, "componentType" : 5123, "count" : 2484, "type" : "SCALAR", "max" : [2086], "min" : [0]}, {"bufferView" : 2, "byteOffset" : 0, "componentType" : 5126, "count" : 2087, "type" : "VEC3", "max" : [1624.814208984375, 2939.7001953125, 188.3365936279297], "min" : [-970.735107421875, 2344.7763671875, -15.411299705505371], "name" : "POSITION"}, {"bufferView" : 2, "byteOffset" : 12, "componentType" : 5126, "count" : 2087, "type" : "VEC3", "max" : [0.7042247653007507, 0.5773528218269348, 0.7121767997741699], "min" : [-0.7042247653007507, -0.7121767997741699, -0.5773528218269348], "name" : "NORMAL"}, {"bufferView" : 2, "byteOffset" : 24, "componentType" : 5126, "count" : 2087, "type" : "VEC2", "max" : [1, 0.920199990272522], "min" : [-0, 0.07980000227689743], "name" : "TEXCOORD_0"}, {"bufferView" : 0, "byteOffset" : 5256, "componentType" : 5123, "count" : 252, "type" : "SCALAR", "max" : [208], "min" : [0]}, {"bufferView" : 3, "byteOffset" : 0, "componentType" : 5126, "count" : 209, "type" : "VEC3", "max" : [1618.293701171875, 2923.50244140625, 592.1668090820312], "min" : [-987.1624145507812, 2634.098876953125, 184.2801055908203], "name" : "POSITION"}, {"bufferView" : 3, "byteOffset" : 12, "componentType" : 5126, "count" : 209, "type" : "VEC3", "max" : [0.7640101313591003, 0.7042039632797241, 0.7105857133865356], "min" : [-0.7640101313591003, -0.7125884294509888, -0.8222169876098633], "name" : "NORMAL"}, {"bufferView" : 3, "byteOffset" : 24, "componentType" : 5126, "count" : 209, "type" : "VEC2", "max" : [4.071400165557861, 1.1328999996185303], "min" : [-3.0713999271392822, -0.13289999961853027], "name" : "TEXCOORD_0"}, {"bufferView" : 0, "byteOffset" : 5760, "componentType" : 5123, "count" : 39204, "type" : "SCALAR", "max" : [32647], "min" : [0]}, {"bufferView" : 4, "byteOffset" : 0, "componentType" : 5126, "count" : 32648, "type" : "VEC3", "max" : [1622.81591796875, 2830.322021484375, 22.81279945373535], "min" : [-973.5283203125, 830.322021484375, -7.18720006942749], "name" : "POSITION"}, {"bufferView" : 4, "byteOffset" : 12, "componentType" : 5126, "count" : 32648, "type" : "VEC3", "max" : [0.9981103539466858, 0.9981103539466858, 0.9987218379974365], "min" : [-0.9981103539466858, -0.9981103539466858, -0.9987218379974365], "name" : "NORMAL"}, {"bufferView" : 4, "byteOffset" : 24, "componentType" : 5126, "count" : 32648, "type" : "VEC2", "max" : [21.32390022277832, 9.210100173950195], "min" : [-20.32390022277832, -8.210100173950195], "name" : "TEXCOORD_0"}, {"bufferView" : 0, "byteOffset" : 84168, "componentType" : 5123, "count" : 9408, "type" : "SCALAR", "max" : [7619], "min" : [0]}, {"bufferView" : 5, "byteOffset" : 0, "componentType" : 5126, "count" : 7620, "type" : "VEC3", "max" : [1559.842041015625, 2930.856689453125, 2.3187999725341797], "min" : [-911.2158813476562, 928.260986328125, -8.652400016784668], "name" : "POSITION"}, {"bufferView" : 5, "byteOffset" : 12, "componentType" : 5126, "count" : 7620, "type" : "VEC3", "max" : [0.718439519405365, 0.9995175004005432, 1.0000044107437134], "min" : [-0.7313888669013977, -0.9995175004005432, -0.7562662363052368], "name" : "NORMAL"}, {"bufferView" : 5, "byteOffset" : 24, "componentType" : 5126, "count" : 7620, "type" : "VEC2", "max" : [4.243299961090088, 8.62279987335205], "min" : [-4.170400142669678, -5.997099876403809], "name" : "TEXCOORD_0"}, {"bufferView" : 0, "byteOffset" : 102984, "componentType" : 5123, "count" : 6048, "type" : "SCALAR", "max" : [4981], "min" : [0]}, {"bufferView" : 6, "byteOffset" : 0, "componentType" : 5126, "count" : 4982, "type" : "VEC3", "max" : [1510.6663818359375, 1430.7618408203125, 2.578900098800659], "min" : [-861.453125, 1348.5648193359375, 1.8319000005722046], "name" : "POSITION"}, {"bufferView" : 6, "byteOffset" : 12, "componentType" : 5126, "count" : 4982, "type" : "VEC3", "max" : [0.5562939047813416, 0.9972867965698242, 0.7255784869194031], "min" : [-0.7322670221328735, -0.8309908509254456, -0.7255784869194031], "name" : "NORMAL"}, {"bufferView" : 6, "byteOffset" : 24, "componentType" : 5126, "count" : 4982, "type" : "VEC2", "max" : [0.75, 1], "min" : [-0.25, 0], "name" : "TEXCOORD_0"}], "asset" : {"generator" : "Aspose.3D 22.10", "version" : "2.0"}, "buffers" : [{"uri" : "data:application/octet-stream;base64,", "byteLength" : 1956388}], "bufferViews" : [{"buffer" : 0, "byteOffset" : 0, "byteLength" : 115080, "target" : 34963}, {"buffer" : 0, "byteOffset" : 115084, "byteLength" : 4608, "byteStride" : 32, "target" : 34962}, {"buffer" : 0, "byteOffset" : 119696, "byteLength" : 79488, "byteStride" : 32, "target" : 34962}, {"buffer" : 0, "byteOffset" : 199188, "byteLength" : 8064, "byteStride" : 32, "target" : 34962}, {"buffer" : 0, "byteOffset" : 207256, "byteLength" : 1254528, "byteStride" : 32, "target" : 34962}, {"buffer" : 0, "byteOffset" : 1461788, "byteLength" : 301056, "byteStride" : 32, "target" : 34962}, {"buffer" : 0, "byteOffset" : 1762848, "byteLength" : 193536, "byteStride" : 32, "target" : 34962}], "images" : [{"uri" : "data:image/jpeg;base64,"}, {"uri" : "data:image/jpeg;base64,"}, {"uri" : "data:image/jpeg;base64,"}, {"uri" : "data:image/jpeg;base64,"}], "materials" : [{"name" : "wire_000000000", "pbrMetallicRoughness" : {"baseColorFactor" : [0, 0, 0, 1], "metallicFactor" : 0, "roughnessFactor" : 0.9167555019498095}, "emissiveFactor" : [0, 0, 0], "alphaMode" : "OPAQUE", "doubleSided" : true}, {"name" : "wire_006135006", "pbrMetallicRoughness" : {"baseColorFactor" : [1, 1, 1, 1], "baseColorTexture" : {"index" : 0, "texCoord" : 0}, "metallicFactor" : 0, "roughnessFactor" : 0.9167555019498095}, "emissiveFactor" : [0, 0, 0], "alphaMode" : "OPAQUE", "doubleSided" : true}, {"name" : "wire_008008136", "pbrMetallicRoughness" : {"baseColorFactor" : [1, 1, 1, 1], "baseColorTexture" : {"index" : 1, "texCoord" : 0}, "metallicFactor" : 0, "roughnessFactor" : 0.9167555019498095}, "emissiveFactor" : [0, 0, 0], "alphaMode" : "OPAQUE", "doubleSided" : true}, {"name" : "wire_027177027", "pbrMetallicRoughness" : {"baseColorFactor" : [1, 1, 1, 1], "baseColorTexture" : {"index" : 2, "texCoord" : 0}, "metallicFactor" : 0, "roughnessFactor" : 0.9167555019498095}, "emissiveFactor" : [0, 0, 0], "alphaMode" : "OPAQUE", "doubleSided" : true}, {"name" : "wire_027177148", "pbrMetallicRoughness" : {"baseColorFactor" : [1, 1, 1, 1], "baseColorTexture" : {"index" : 3, "texCoord" : 0}, "metallicFactor" : 0, "roughnessFactor" : 0.9167555019498095}, "emissiveFactor" : [0, 0, 0], "alphaMode" : "OPAQUE", "doubleSided" : true}, {"name" : "wire_028149177", "pbrMetallicRoughness" : {"baseColorFactor" : [0.1098, 0.5842999999999996, 0.6941, 1], "metallicFactor" : 0, "roughnessFactor" : 0.9167555019498095}, "emissiveFactor" : [0, 0, 0], "alphaMode" : "OPAQUE", "doubleSided" : true}], "meshes" : [{"primitives" : [{"attributes" : {"POSITION" : 1, "NORMAL" : 2, "TEXCOORD_0" : 3}, "indices" : 0, "material" : 0, "mode" : 4}]}, {"primitives" : [{"attributes" : {"POSITION" : 5, "NORMAL" : 6, "TEXCOORD_0" : 7}, "indices" : 4, "material" : 1, "mode" : 4}]}, {"primitives" : [{"attributes" : {"POSITION" : 9, "NORMAL" : 10, "TEXCOORD_0" : 11}, "indices" : 8, "material" : 2, "mode" : 4}]}, {"primitives" : [{"attributes" : {"POSITION" : 13, "NORMAL" : 14, "TEXCOORD_0" : 15}, "indices" : 12, "material" : 3, "mode" : 4}]}, {"primitives" : [{"attributes" : {"POSITION" : 17, "NORMAL" : 18, "TEXCOORD_0" : 19}, "indices" : 16, "material" : 4, "mode" : 4}]}, {"primitives" : [{"attributes" : {"POSITION" : 21, "NORMAL" : 22, "TEXCOORD_0" : 23}, "indices" : 20, "material" : 5, "mode" : 4}]}], "nodes" : [{"mesh" : 0, "name" : "Object_2"}, {"mesh" : 1, "name" : "Object_3"}, {"mesh" : 2, "name" : "Object_4"}, {"mesh" : 3, "name" : "Object_5"}, {"mesh" : 4, "name" : "Object_6"}, {"mesh" : 5, "name" : "Object_7"}, {"children" : [0, 1, 2, 3, 4, 5], "name" : "alley 2.obj.cleaner.materialmerger.gles"}, {"children" : [6], "matrix" : [1, 0, 0, 0, 0, 2.220446049250313E-16, -1, 0, 0, 1, 2.220446049250313E-16, 0, 0, 0, 0, 1], "name" : "Sketchfab_model"}], "samplers" : [{"magFilter" : 9729, "minFilter" : 9987, "wrapS" : 10497, "wrapT" : 10497}, {"magFilter" : 9729, "minFilter" : 9987, "wrapS" : 10497, "wrapT" : 10497}, {"magFilter" : 9729, "minFilter" : 9987, "wrapS" : 10497, "wrapT" : 10497}, {"magFilter" : 9729, "minFilter" : 9987, "wrapS" : 10497, "wrapT" : 10497}], "scene" : 0, "scenes" : [{"nodes" : [7]}], "textures" : [{"sampler" : 0, "source" : 0, "name" : ""}, {"sampler" : 1, "source" : 1, "name" : ""}, {"sampler" : 2, "source" : 2, "name" : ""}, {"sampler" : 3, "source" : 3, "name" : ""}]}